#!OML:ASF E:\emotionWalksFemale\Project 1\Capture day 1\Session 1\Female1.ASF
:FULLY-SPECIFIED
:DEGREES
695
root 8.11874 15.3721 20.443 180.324 -3.82941 -182.346
lowerback 3.88681 0.562328 -0.518518
upperback -5.61894 0.476292 -0.264441
thorax -8.07269 0.163002 -0.0257131
lowerneck -1.14055 -2.82312 -5.01323
upperneck -3.56084 -3.7326 3.63083
head -0.747675 -1.86887 1.99718
rclavicle 5.36719e-015 8.54774e-015
rhumerus -45.2025 -0.659871 -80.5658
rradius 30.1644
rwrist 20.9778
rhand -3.23938 -48.3712
rfingers 7.12502
rthumb 22.4842 -77.0823
lclavicle 5.36719e-015 8.54774e-015
lhumerus -49.4882 -4.82791 87.5251
lradius 36.1991
lwrist -17.2707
lhand -7.18724 -32.505
lfingers 7.12502
lthumb 18.6907 -3.38296
rfemur -21.9439 35.816 9.10742
rtibia 16.4146
rfoot -41.2383 -45.9185
rtoes 29.3384
lfemur 14.5435 -15.7708 -32.6423
ltibia 14.6607
lfoot -13.2942 12.3886
ltoes -16.2503
696
root 8.13113 15.3834 20.3719 180.504 -3.12369 -182.313
lowerback 3.91832 0.781574 -0.260669
upperback -5.72001 0.779267 -0.291712
thorax -8.19729 0.290819 -0.232168
lowerneck -1.34086 -2.81748 -4.97037
upperneck -3.42952 -3.71902 3.54716
head -0.675094 -1.86092 1.95641
rclavicle 2.38542e-015 -2.38542e-015
rhumerus -44.9421 -0.301379 -80.8402
rradius 30.145
rwrist 20.2654
rhand -1.96101 -49.4097
rfingers 7.12502
rthumb 23.7108 -77.9672
lclavicle 2.38542e-015 -2.38542e-015
lhumerus -49.5161 -4.68129 87.2905
lradius 35.9782
lwrist -17.6857
lhand -7.09854 -32.5908
lfingers 7.12502
lthumb 18.776 -3.47699
rfemur -21.8736 33.9717 9.77051
rtibia 16.2587
rfoot -36.7711 -44.5902
rtoes 27.8723
lfemur 14.518 -15.5214 -32.6677
ltibia 14.7693
lfoot -12.7519 12.5999
ltoes -16.3804
697
root 8.15459 15.4007 20.2907 180.614 -3.00785 -182.305
lowerback 3.88141 0.788281 -0.117638
upperback -5.7924 0.786732 -0.357283
thorax -8.25087 0.279777 -0.381699
lowerneck -1.50173 -2.77128 -4.99472
upperneck -3.20868 -3.64748 3.61281
head -0.580069 -1.82387 1.9763
rclavicle 8.10048e-015 4.37326e-015
rhumerus -44.9226 -0.394867 -80.9267
rradius 30.2888
rwrist 20.4552
rhand -0.671142 -50.3659
rfingers 7.12502
rthumb 24.9474 -78.7575
lclavicle 8.10048e-015 4.37326e-015
lhumerus -49.6119 -4.75455 87.0975
lradius 35.7319
lwrist -18.1004
lhand -7.87399 -32.8362
lfingers 7.12502
lthumb 18.0301 -3.65194
rfemur -21.6186 33.249 10.2246
rtibia 16.2175
rfoot -34.3231 -44.2207
rtoes 26.0079
lfemur 14.5704 -15.4616 -32.5378
ltibia 14.8485
lfoot -12.2357 12.3687
ltoes -15.1795
698
root 8.18781 15.4211 20.2004 180.591 -3.25191 -182.231
lowerback 3.83242 0.61882 -0.0874653
upperback -5.77928 0.563182 -0.339052
thorax -8.20873 0.169298 -0.354451
lowerneck -1.72494 -2.67562 -5.03703
upperneck -2.94982 -3.50797 3.65685
head -0.465881 -1.75211 1.99171
rclavicle 8.34896e-015 8.54774e-015
rhumerus -44.8701 -0.412527 -80.9954
rradius 30.4665
rwrist 21.0348
rhand -3.36963 -47.708
rfingers 7.12502
rthumb 22.3592 -76.4341
lclavicle 8.34896e-015 8.54774e-015
lhumerus -49.6569 -4.48191 86.78
lradius 35.5104
lwrist -18.6129
lhand -8.72838 -33.1814
lfingers 7.12502
lthumb 17.2079 -3.92331
rfemur -21.1485 33.408 10.667
rtibia 16.2532
rfoot -33.8073 -44.34
rtoes 25.4472
lfemur 14.8422 -15.4039 -32.1996
ltibia 14.8751
lfoot -11.6622 11.8083
ltoes -16.0388
699
root 8.22123 15.4249 20.1114 180.517 -3.32519 -182.127
lowerback 3.8065 0.510315 -0.0436017
upperback -5.74964 0.424638 -0.318712
thorax -8.16179 0.100489 -0.34241
lowerneck -1.9695 -2.64673 -4.8604
upperneck -2.71816 -3.46345 3.51113
head -0.359584 -1.72909 1.90615
rclavicle 3.77691e-015 -7.15625e-015
rhumerus -44.6888 -0.223797 -81.225
rradius 30.5226
rwrist 21.1129
rhand -4.12937 -47.2363
rfingers 7.12502
rthumb 21.6297 -76.0482
lclavicle 3.77691e-015 -7.15625e-015
lhumerus -49.7713 -4.15779 86.4134
lradius 35.4329
lwrist -19.0456
lhand -8.72905 -33.1697
lfingers 7.12502
lthumb 17.2072 -3.91158
rfemur -20.7259 33.4981 11.174
rtibia 16.3436
rfoot -32.9195 -44.1018
rtoes 25.8226
lfemur 15.2662 -15.154 -31.8754
ltibia 14.9148
lfoot -11.0759 11.394
ltoes -19.5736
700
root 8.24775 15.4276 20.0326 180.615 -2.63291 -182.089
lowerback 3.79327 0.688485 0.0111769
upperback -5.82468 0.658351 -0.337757
thorax -8.23318 0.207133 -0.418207
lowerneck -2.10741 -2.6184 -4.79461
upperneck -2.5787 -3.42093 3.52461
head -0.295437 -1.70756 1.89536
rclavicle 1.04362e-014 -3.18055e-015
rhumerus -44.5548 -0.117773 -81.4467
rradius 30.6584
rwrist 20.8655
rhand -3.5509 -47.8918
rfingers 7.12502
rthumb 22.1852 -76.6387
lclavicle 1.04362e-014 -3.18055e-015
lhumerus -49.9111 -4.01243 86.1505
lradius 35.3081
lwrist -19.2699
lhand -8.45257 -32.877
lfingers 7.12502
lthumb 17.4733 -3.6423
rfemur -20.7529 32.4245 11.7181
rtibia 16.5061
rfoot -29.7583 -42.8218
rtoes 23.9596
lfemur 15.437 -14.5592 -31.7483
ltibia 14.9494
lfoot -10.6344 11.4064
ltoes -20.7809
701
root 8.27647 15.4426 19.9516 180.629 -2.11866 -182.062
lowerback 3.84142 0.788925 -0.0403579
upperback -5.83887 0.79241 -0.278934
thorax -8.27762 0.277541 -0.342614
lowerneck -2.18257 -2.49627 -5.07529
upperneck -2.58941 -3.24798 3.82004
head -0.283841 -1.61999 2.04247
rclavicle 1.66979e-014 -1.39149e-015
rhumerus -44.3314 0.0495048 -81.5627
rradius 30.7944
rwrist 20.5976
rhand -3.18908 -48.2266
rfingers 7.12502
rthumb 22.5325 -76.9318
lclavicle 1.66979e-014 -1.39149e-015
lhumerus -49.8767 -3.72178 85.9803
lradius 35.0744
lwrist -19.3829
lhand -7.84946 -32.6828
lfingers 7.12502
lthumb 18.0537 -3.50065
rfemur -20.6321 31.5696 12.2599
rtibia 16.7408
rfoot -28.4101 -41.7774
rtoes 21.5737
lfemur 15.695 -14.0138 -31.5962
ltibia 14.8839
lfoot -10.2211 11.2733
ltoes -20.2597
702
root 8.30539 15.4588 19.8615 180.561 -2.42318 -182.016
lowerback 3.7813 0.600449 -0.0243058
upperback -5.79787 0.547419 -0.224806
thorax -8.19929 0.159955 -0.267365
lowerneck -2.2373 -2.38713 -5.13477
upperneck -2.59802 -3.09937 3.85689
head -0.28265 -1.54533 2.06598
rclavicle 5.06901e-015 1.19271e-015
rhumerus -44.1436 0.427025 -81.7844
rradius 30.9977
rwrist 20.0494
rhand -3.02332 -48.5687
rfingers 7.12502
rthumb 22.6916 -77.2546
lclavicle 5.06901e-015 1.19271e-015
lhumerus -49.8773 -3.42651 85.8249
lradius 34.9215
lwrist -19.5117
lhand -7.14295 -32.5843
lfingers 7.12502
lthumb 18.7333 -3.46633
rfemur -20.1293 31.4114 12.6977
rtibia 16.8911
rfoot -26.9729 -41.2331
rtoes 20.4093
lfemur 16.015 -13.946 -31.3167
ltibia 14.8776
lfoot -9.60023 10.8175
ltoes -21.1039
703
root 8.33388 15.4672 19.7758 180.672 -2.01339 -182.075
lowerback 3.62023 0.646112 -0.118044
upperback -5.85223 0.592526 -0.220281
thorax -8.1646 0.184069 -0.213265
lowerneck -2.41184 -2.31095 -5.09608
upperneck -2.32906 -2.98996 3.83314
head -0.175 -1.48863 2.04743
rclavicle -1.54058e-014 -4.77083e-015
rhumerus -44.0402 0.915742 -82.1325
rradius 31.323
rwrist 19.3145
rhand -2.58366 -49.2637
rfingers 7.12502
rthumb 23.1135 -77.8973
lclavicle -1.54058e-014 -4.77083e-015
lhumerus -50.062 -3.27858 85.7093
lradius 34.8706
lwrist -19.7203
lhand -7.17508 -32.5121
lfingers 7.12502
lthumb 18.7024 -3.39121
rfemur -19.9684 30.3713 13.1144
rtibia 16.9269
rfoot -24.4127 -40.1145
rtoes 17.9413
lfemur 16.0561 -13.5194 -31.2419
ltibia 15.0115
lfoot -8.81363 10.6874
ltoes -22.9335
704
root 8.36663 15.4744 19.6878 180.653 -1.69693 -182.082
lowerback 3.61049 0.658922 -0.237406
upperback -5.87933 0.599485 -0.183907
thorax -8.19019 0.194604 -0.108726
lowerneck -2.60721 -2.23248 -5.20656
upperneck -2.02701 -2.87244 3.98599
head -0.0485518 -1.42692 2.11391
rclavicle -9.69075e-015 1.98785e-015
rhumerus -43.9523 1.2654 -82.3383
rradius 31.6536
rwrist 19.0454
rhand -2.46119 -49.4133
rfingers 7.12502
rthumb 23.231 -78.0321
lclavicle -9.69075e-015 1.98785e-015
lhumerus -50.276 -3.17661 85.6153
lradius 34.8989
lwrist -19.8068
lhand -7.37476 -32.6582
lfingers 7.12502
lthumb 18.5104 -3.51889
rfemur -19.6406 29.5966 13.6198
rtibia 16.9921
rfoot -22.3289 -39.2063
rtoes 15.7705
lfemur 16.2799 -13.0422 -31.0952
ltibia 15.1554
lfoot -8.0004 10.4482
ltoes -24.6173
